<?xml version="1.0" standalone="no"?>
<!DOCTYPE svg PUBLIC "-//W3C//DTD SVG 20010904//EN"
 "http://www.w3.org/TR/2001/REC-SVG-20010904/DTD/svg10.dtd">
<svg version="1.0" xmlns="http://www.w3.org/2000/svg"
 width="280.000000pt" height="180.000000pt" viewBox="0 0 280.000000 180.000000"
 preserveAspectRatio="xMidYMid meet">

<g transform="translate(0.000000,180.000000) scale(0.100000,-0.100000)"
fill="#000000" stroke="none">
<path d="M1062 1780 c-12 -11 -22 -24 -22 -28 0 -4 14 -34 31 -66 28 -54 31
-64 23 -110 -4 -28 -8 -88 -9 -133 0 -95 -11 -115 -49 -90 -56 37 -77 81 -98
204 -20 120 -36 158 -69 168 -26 9 -67 -19 -75 -50 -3 -14 -4 -56 -2 -94 4
-82 35 -136 100 -177 59 -37 98 -84 98 -116 0 -15 5 -30 10 -33 18 -11 10 -32
-16 -44 -23 -10 -36 -7 -104 25 -79 37 -112 39 -124 8 -16 -41 34 -74 109 -74
55 0 96 -29 76 -54 -22 -26 -160 -64 -273 -74 -151 -14 -198 -45 -198 -128 0
-85 76 -145 149 -115 16 7 57 46 90 87 46 56 67 74 86 74 34 0 43 -39 19 -82
-14 -24 -41 -44 -100 -73 -101 -49 -114 -60 -114 -94 0 -28 36 -71 58 -71 18
0 78 57 119 113 44 61 51 67 80 67 36 0 56 -40 48 -94 -9 -56 4 -76 51 -76 24
0 34 5 39 20 10 33 35 52 50 40 10 -9 6 -33 -21 -123 -39 -132 -72 -209 -144
-332 -55 -95 -68 -143 -51 -187 12 -33 45 -37 91 -13 44 23 57 58 84 228 37
227 89 377 132 377 8 0 22 -15 31 -34 15 -33 15 -40 -6 -128 -33 -133 -17
-161 82 -150 38 5 52 42 37 101 -6 24 -18 53 -26 65 -22 31 -18 102 7 127 43
43 73 7 113 -136 14 -49 30 -136 35 -193 14 -149 56 -216 105 -167 25 26 19
68 -24 162 -58 125 -94 245 -86 287 7 39 27 59 52 54 18 -3 18 -2 63 -99 35
-75 52 -87 89 -63 21 14 23 21 18 56 -9 55 13 88 57 88 62 0 100 -46 111 -135
15 -110 15 -112 45 -125 24 -9 35 -9 61 5 31 16 32 19 28 66 -4 40 -17 68 -67
141 -33 50 -61 102 -61 115 0 14 13 38 30 54 32 33 53 32 122 -2 52 -26 74
-59 103 -154 41 -136 109 -189 165 -130 22 23 24 35 24 113 0 91 -13 131 -58
180 -37 42 -70 52 -163 52 -69 0 -95 4 -120 19 -51 31 -52 56 -4 105 53 54 54
81 1 129 -22 19 -40 44 -40 55 0 24 33 54 97 86 90 45 157 58 260 50 l93 -6
10 26 c31 84 -5 126 -109 126 -84 0 -132 -22 -268 -123 -56 -41 -114 -78 -129
-81 -40 -10 -93 11 -100 40 -8 33 8 50 66 69 31 10 61 30 81 52 26 31 30 42
25 72 -5 33 -27 61 -48 61 -4 0 -33 -22 -63 -50 -60 -55 -89 -62 -123 -30 -36
34 -37 63 -3 158 17 48 31 99 31 112 0 37 -26 68 -63 75 -49 9 -83 -9 -107
-56 -22 -42 -23 -80 -5 -167 13 -60 -45 -96 -100 -62 -18 11 -41 20 -52 20
-20 0 -83 -55 -83 -72 0 -16 -39 -28 -63 -19 -20 8 -25 18 -30 62 -4 28 -16
70 -28 93 -16 31 -23 66 -28 141 -7 109 -17 124 -59 85z m95 -630 c9 -17 20
-30 23 -30 3 0 24 18 45 40 21 22 44 40 49 40 6 0 -11 -22 -37 -48 l-48 -49
36 -47 c20 -27 34 -50 32 -52 -3 -4 -58 60 -72 84 -1 1 -24 -18 -51 -42 -27
-25 -51 -43 -53 -40 -3 2 17 24 43 47 l49 43 -17 32 c-9 18 -25 38 -36 45 -26
15 -26 31 -1 17 11 -5 28 -24 38 -40z m369 5 c14 19 31 35 36 35 6 0 -5 -19
-25 -43 l-35 -43 27 -39 c38 -56 43 -65 37 -65 -3 0 -20 22 -39 49 l-33 50
-43 -56 c-23 -30 -45 -52 -48 -49 -3 3 16 30 42 61 l48 56 -20 22 c-38 44 -45
61 -10 25 l37 -37 26 34z m-123 -302 c-24 -2 -62 -2 -85 0 -24 2 -5 4 42 4 47
0 66 -2 43 -4z"/>
</g>
</svg>
